<svg xmlns="http://www.w3.org/2000/svg" xml:space="preserve" width="655.359" height="655.359" style="shape-rendering:geometricPrecision;text-rendering:geometricPrecision;image-rendering:optimizeQuality;fill-rule:evenodd;clip-rule:evenodd" viewBox="0 0 6.827 6.827"><defs><style>.fil0{fill:#ff8906;fill-rule:nonzero}</style></defs><g id="Layer_x0020_1"><path class="fil0" d="M1.137 1.791h2.747a.283.283 0 0 1 .284.284v2.17a.283.283 0 0 1-.284.283H2.197a.47.47 0 0 0-.069-.214h1.756a.07.07 0 0 0 .05-.02.07.07 0 0 0 .02-.05v-2.17a.07.07 0 0 0-.02-.049.07.07 0 0 0-.05-.02H1.137a.07.07 0 0 0-.05.02.07.07 0 0 0-.02.05v2.17c0 .018.008.036.02.049a.07.07 0 0 0 .05.02h.186a.47.47 0 0 0-.07.214h-.116a.283.283 0 0 1-.284-.284v-2.17a.283.283 0 0 1 .284-.283z"/><path class="fil0" d="M4.06 3.334h1.6a.312.312 0 0 1 .313.313v.568a.312.312 0 0 1-.313.313h-.314a.47.47 0 0 0-.069-.214h.383a.1.1 0 0 0 .07-.03.1.1 0 0 0 .03-.07v-.567a.1.1 0 0 0-.03-.07.1.1 0 0 0-.07-.03h-1.6v-.213zm.343 1.194h-.696v-.214h.765a.47.47 0 0 0-.07.214z"/><path class="fil0" d="M4.06 2.428a.107.107 0 0 0 0 .213h.71l.54.815a.106.106 0 0 0 .178-.117l-.568-.857a.107.107 0 0 0-.093-.054h-.766zM4.874 4.09a.472.472 0 0 1 .335.807.472.472 0 0 1-.808-.335.472.472 0 0 1 .473-.473zm.184.289a.259.259 0 0 0-.443.183.259.259 0 0 0 .443.184.259.259 0 0 0 0-.367zM1.726 4.09a.472.472 0 0 1 .334.807.472.472 0 0 1-.808-.335.472.472 0 0 1 .474-.473zm.183.289a.259.259 0 0 0-.443.183.259.259 0 0 0 .443.184.259.259 0 0 0 0-.367zM5.867 3.904a.107.107 0 0 0 0-.214h-.474a.107.107 0 0 0 0 .214h.474zM.96 3.733h3.1v.214H.96zM1.493 3.413v.32H1.28v-.32zM1.92 3.413v.32h-.213v-.32zM2.347 3.413v.32h-.214v-.32zM2.773 3.413v.32H2.56v-.32zM3.2 3.413v.32h-.213v-.32zM3.627 3.413v.32h-.214v-.32z"/></g><path style="fill:none" d="M0 0h6.827v6.827H0z"/></svg>